<svg xmlns="http://www.w3.org/2000/svg" xmlns:xlink="http://www.w3.org/1999/xlink" width="40" zoomAndPan="magnify" viewBox="0 0 30 30.000001" height="40" preserveAspectRatio="xMidYMid meet" version="1.0"><defs><clipPath id="aa6f2a77d1"><path d="M 10.039062 5.75 L 20 5.75 L 20 23.171875 L 10.039062 23.171875 Z M 10.039062 5.75 " clip-rule="nonzero"/></clipPath><clipPath id="7e9ac0fd8b"><path d="M 10.039062 6 L 12 6 L 12 10 L 10.039062 10 Z M 10.039062 6 " clip-rule="nonzero"/></clipPath><clipPath id="d173647175"><path d="M 1.648438 3.429688 L 9.632812 3.429688 L 9.632812 25.929688 L 1.648438 25.929688 Z M 1.648438 3.429688 " clip-rule="nonzero"/></clipPath><clipPath id="c89cc36f22"><path d="M 20.355469 3.433594 L 28.195312 3.433594 L 28.195312 25.933594 L 20.355469 25.933594 Z M 20.355469 3.433594 " clip-rule="nonzero"/></clipPath></defs><g clip-path="url(#aa6f2a77d1)"><path fill="#ffffff" d="M 10.285156 16.863281 C 10.410156 17.847656 10.8125 18.125 10.8125 18.125 C 10.125 18.492188 10.230469 19.519531 10.433594 19.90625 C 10.558594 20.152344 10.734375 20.160156 10.734375 20.160156 C 10.113281 21.078125 10.851562 21.734375 10.851562 21.734375 C 10.691406 22.253906 10.644531 22.765625 10.710938 23.171875 L 19.917969 23.171875 C 19.972656 23.023438 20.03125 22.761719 19.957031 22.296875 C 19.800781 21.332031 19.488281 20.9375 19.421875 20.863281 C 19.421875 20.859375 20.011719 19.996094 19.957031 19.226562 C 19.867188 17.992188 19.546875 17.8125 19.546875 17.8125 C 20.167969 16.96875 19.746094 16.09375 19.507812 15.800781 C 19.503906 15.695312 19.839844 14.550781 19.601562 13.53125 C 19.523438 13.191406 19.347656 12.230469 19.3125 12.179688 C 19.347656 12.0625 19.566406 11.640625 19.21875 10.800781 C 19.070312 10.453125 18.867188 10.164062 18.726562 9.988281 C 18.664062 9.839844 18.625 9.75 18.625 9.75 C 19.214844 7.839844 18.886719 5.875 18.5625 5.898438 C 17.953125 5.949219 17.109375 8.207031 17.050781 8.359375 C 17.027344 8.417969 16.390625 8.464844 15.679688 8.515625 C 15.019531 8.464844 14.34375 8.429688 13.992188 8.484375 C 13.550781 8.554688 13.175781 8.6875 12.867188 8.832031 C 12.441406 8.890625 12.285156 8.902344 12.257812 8.851562 C 12.121094 8.570312 11.675781 6.597656 10.875 6.113281 C 10.449219 5.851562 9.90625 9.1875 10.96875 10.222656 C 10.96875 10.222656 11.046875 10.535156 11.089844 10.792969 C 10.785156 11.460938 11.066406 12.367188 11.066406 12.367188 C 9.804688 12.890625 10.925781 14.757812 10.925781 14.757812 C 10.644531 15.0625 10.101562 15.433594 10.285156 16.863281 " fill-opacity="1" fill-rule="nonzero"/></g><g clip-path="url(#7e9ac0fd8b)"><path fill="#d9d9d9" d="M 10.992188 6.878906 C 10.734375 6.429688 10.164062 8.566406 11.265625 9.609375 C 11.539062 9.863281 11.546875 9.425781 11.355469 8.164062 C 11.292969 7.730469 11.179688 7.203125 10.992188 6.878906 " fill-opacity="1" fill-rule="nonzero"/></g><path fill="#d9d9d9" d="M 18.308594 6.660156 C 18.589844 6.226562 19.046875 8.390625 17.886719 9.371094 C 17.601562 9.609375 17.617188 9.171875 17.875 7.921875 C 17.964844 7.492188 18.105469 6.976562 18.308594 6.660156 " fill-opacity="1" fill-rule="nonzero"/><path fill="#d9d9d9" d="M 18.023438 10.996094 C 17.3125 10.261719 15.1875 10.4375 15.1875 10.4375 C 15.1875 10.4375 13.070312 10.195312 12.335938 10.910156 C 12.335938 10.910156 10.011719 16.09375 15.097656 16.207031 C 20.1875 16.253906 18.023438 10.996094 18.023438 10.996094 " fill-opacity="1" fill-rule="nonzero"/><path fill="#d9d9d9" d="M 17.40625 12.582031 C 17.820312 12.582031 18.15625 12.816406 18.15625 13.105469 C 18.15625 13.390625 17.820312 13.625 17.40625 13.625 C 16.988281 13.625 16.652344 13.390625 16.652344 13.105469 C 16.652344 12.816406 16.988281 12.582031 17.40625 12.582031 " fill-opacity="1" fill-rule="nonzero"/><path fill="#d9d9d9" d="M 13.011719 12.671875 C 13.425781 12.671875 13.765625 12.902344 13.765625 13.191406 C 13.765625 13.480469 13.425781 13.714844 13.011719 13.714844 C 12.597656 13.714844 12.257812 13.480469 12.257812 13.191406 C 12.257812 12.902344 12.597656 12.671875 13.011719 12.671875 " fill-opacity="1" fill-rule="nonzero"/><path fill="#231f20" d="M 16.753906 12.179688 C 16.75 12.316406 16.636719 12.425781 16.5 12.425781 C 16.359375 12.421875 16.25 12.308594 16.253906 12.171875 C 16.253906 12.03125 16.371094 11.816406 16.507812 11.820312 C 16.648438 11.820312 16.753906 12.039062 16.753906 12.179688 " fill-opacity="1" fill-rule="nonzero"/><path fill="#231f20" d="M 14.050781 12.238281 C 14.046875 12.375 13.933594 12.484375 13.796875 12.484375 C 13.65625 12.480469 13.546875 12.367188 13.546875 12.230469 C 13.550781 12.089844 13.667969 11.875 13.804688 11.878906 C 13.941406 11.878906 14.050781 12.097656 14.050781 12.238281 " fill-opacity="1" fill-rule="nonzero"/><path fill="#ffffff" d="M 17.332031 14.359375 C 17.339844 13.710938 16.347656 12.949219 15.285156 12.933594 C 14.222656 12.917969 13.265625 13.628906 13.253906 14.277344 C 13.25 14.621094 13.558594 14.792969 13.925781 15.042969 C 14.292969 15.300781 14.683594 15.871094 15.269531 15.882812 C 15.855469 15.890625 16.261719 15.324219 16.640625 15.082031 C 17.007812 14.847656 17.324219 14.695312 17.332031 14.359375 " fill-opacity="1" fill-rule="nonzero"/><path fill="#ffffff" d="M 18.40625 9.675781 C 18.382812 9.457031 18.207031 9.265625 17.988281 9.277344 C 18.101562 9.09375 18.175781 8.679688 17.796875 8.496094 C 17.558594 8.382812 17.28125 8.589844 17.28125 8.589844 C 17.28125 8.589844 17.238281 8.113281 16.722656 8.019531 C 16.179688 7.921875 15.886719 8.460938 15.886719 8.460938 C 15.894531 8.03125 15.164062 7.777344 14.761719 7.851562 C 14.265625 7.9375 14.03125 8.296875 14.03125 8.296875 C 13.054688 7.699219 12.683594 8.632812 12.683594 8.632812 C 12.46875 8.109375 11.691406 8.269531 11.445312 8.585938 C 11.136719 8.996094 11.503906 9.339844 11.503906 9.339844 C 11.503906 9.339844 10.832031 9.796875 11.125 10.324219 C 11.457031 10.925781 12.09375 10.554688 12.09375 10.554688 C 12.34375 11.824219 13.332031 10.71875 13.332031 10.71875 C 13.402344 11.308594 13.664062 11.820312 14.40625 11.648438 C 14.921875 11.53125 15.078125 10.859375 15.078125 10.859375 C 15.257812 11.546875 15.792969 11.449219 16 11.25 C 16.125 11.125 16.132812 10.949219 16.132812 10.949219 C 16.601562 11.578125 16.953125 10.847656 16.953125 10.847656 C 17.363281 11.101562 17.773438 11.082031 17.980469 10.804688 C 18.101562 10.648438 18.132812 10.472656 18.074219 10.183594 C 18.246094 10.132812 18.4375 9.988281 18.40625 9.675781 " fill-opacity="1" fill-rule="nonzero"/><path fill="#d9d9d9" d="M 11.707031 9.515625 C 11.683594 9.523438 11.660156 9.53125 11.644531 9.542969 C 11.628906 9.550781 11.613281 9.5625 11.605469 9.578125 C 11.59375 9.589844 11.585938 9.605469 11.582031 9.621094 C 11.574219 9.640625 11.570312 9.65625 11.570312 9.671875 C 11.570312 9.710938 11.570312 9.746094 11.582031 9.785156 C 11.585938 9.804688 11.589844 9.820312 11.597656 9.839844 C 11.605469 9.855469 11.613281 9.875 11.621094 9.890625 C 11.65625 9.957031 11.695312 10.023438 11.757812 10.0625 C 11.773438 10.070312 11.789062 10.078125 11.808594 10.082031 C 11.824219 10.082031 11.84375 10.085938 11.867188 10.082031 C 11.882812 10.078125 11.90625 10.074219 11.921875 10.066406 C 11.945312 10.058594 11.960938 10.046875 11.980469 10.035156 L 12.027344 10.007812 L 12.019531 10.0625 C 12.015625 10.09375 12.007812 10.125 12.003906 10.15625 C 12.003906 10.191406 12.007812 10.222656 12.011719 10.253906 C 12.015625 10.285156 12.027344 10.3125 12.035156 10.34375 C 12.050781 10.371094 12.0625 10.398438 12.078125 10.421875 C 12.097656 10.445312 12.109375 10.46875 12.132812 10.488281 C 12.140625 10.496094 12.152344 10.507812 12.160156 10.519531 C 12.171875 10.527344 12.183594 10.535156 12.195312 10.542969 C 12.214844 10.5625 12.242188 10.570312 12.269531 10.582031 C 12.292969 10.597656 12.320312 10.597656 12.347656 10.609375 C 12.375 10.617188 12.402344 10.617188 12.429688 10.625 C 12.460938 10.625 12.488281 10.625 12.519531 10.628906 C 12.546875 10.628906 12.578125 10.625 12.605469 10.625 L 12.699219 10.609375 C 12.730469 10.605469 12.757812 10.59375 12.789062 10.585938 C 12.820312 10.582031 12.851562 10.570312 12.882812 10.558594 C 12.914062 10.546875 12.945312 10.539062 12.972656 10.523438 C 13.003906 10.511719 13.035156 10.5 13.070312 10.488281 L 13.078125 10.5 C 13.054688 10.527344 13.03125 10.550781 13.007812 10.574219 C 12.984375 10.601562 12.953125 10.621094 12.925781 10.644531 C 12.898438 10.664062 12.871094 10.6875 12.835938 10.703125 C 12.804688 10.71875 12.773438 10.738281 12.742188 10.75 C 12.707031 10.761719 12.671875 10.773438 12.636719 10.785156 C 12.601562 10.792969 12.5625 10.796875 12.527344 10.804688 C 12.488281 10.804688 12.449219 10.804688 12.414062 10.804688 C 12.375 10.796875 12.335938 10.792969 12.300781 10.78125 C 12.261719 10.765625 12.226562 10.757812 12.191406 10.734375 C 12.15625 10.714844 12.125 10.695312 12.097656 10.667969 C 12.082031 10.652344 12.066406 10.640625 12.050781 10.625 L 12.015625 10.578125 C 11.992188 10.550781 11.980469 10.511719 11.964844 10.476562 C 11.949219 10.441406 11.945312 10.402344 11.9375 10.367188 C 11.9375 10.328125 11.933594 10.292969 11.933594 10.257812 C 11.941406 10.222656 11.941406 10.1875 11.949219 10.152344 C 11.957031 10.117188 11.960938 10.082031 11.96875 10.050781 L 12.007812 10.074219 C 11.96875 10.101562 11.929688 10.128906 11.878906 10.144531 C 11.855469 10.152344 11.832031 10.160156 11.804688 10.160156 C 11.777344 10.164062 11.75 10.164062 11.722656 10.15625 C 11.667969 10.144531 11.617188 10.117188 11.578125 10.082031 C 11.558594 10.066406 11.539062 10.046875 11.523438 10.023438 C 11.507812 10.003906 11.496094 9.980469 11.484375 9.957031 C 11.464844 9.910156 11.449219 9.859375 11.441406 9.808594 C 11.441406 9.78125 11.441406 9.753906 11.441406 9.726562 C 11.441406 9.703125 11.449219 9.675781 11.457031 9.648438 C 11.464844 9.625 11.476562 9.597656 11.492188 9.574219 C 11.507812 9.550781 11.53125 9.53125 11.554688 9.515625 C 11.578125 9.5 11.605469 9.496094 11.632812 9.492188 C 11.644531 9.492188 11.660156 9.492188 11.671875 9.492188 L 11.707031 9.5 L 11.707031 9.515625 " fill-opacity="1" fill-rule="nonzero"/><path fill="#d9d9d9" d="M 14.964844 8.726562 L 14.945312 8.699219 C 14.9375 8.6875 14.933594 8.675781 14.925781 8.664062 C 14.917969 8.636719 14.914062 8.609375 14.917969 8.582031 C 14.921875 8.554688 14.929688 8.523438 14.945312 8.5 C 14.957031 8.476562 14.976562 8.457031 14.996094 8.4375 C 15.015625 8.417969 15.039062 8.402344 15.0625 8.390625 C 15.085938 8.378906 15.109375 8.367188 15.136719 8.359375 C 15.183594 8.34375 15.234375 8.335938 15.289062 8.335938 C 15.3125 8.335938 15.339844 8.335938 15.367188 8.34375 C 15.390625 8.347656 15.417969 8.355469 15.441406 8.367188 C 15.492188 8.390625 15.539062 8.425781 15.570312 8.46875 C 15.585938 8.492188 15.597656 8.515625 15.609375 8.539062 C 15.617188 8.566406 15.621094 8.59375 15.625 8.617188 C 15.628906 8.667969 15.621094 8.714844 15.613281 8.761719 L 15.574219 8.738281 C 15.601562 8.71875 15.628906 8.699219 15.65625 8.675781 C 15.6875 8.65625 15.71875 8.640625 15.75 8.621094 C 15.78125 8.605469 15.816406 8.589844 15.847656 8.578125 C 15.886719 8.570312 15.921875 8.558594 15.960938 8.554688 C 15.996094 8.554688 16.039062 8.550781 16.074219 8.5625 L 16.132812 8.574219 C 16.152344 8.582031 16.167969 8.589844 16.1875 8.597656 C 16.226562 8.609375 16.257812 8.632812 16.289062 8.65625 C 16.324219 8.675781 16.347656 8.707031 16.375 8.734375 C 16.402344 8.761719 16.421875 8.796875 16.445312 8.828125 C 16.460938 8.863281 16.476562 8.898438 16.492188 8.933594 C 16.5 8.96875 16.511719 9.003906 16.519531 9.039062 C 16.523438 9.078125 16.527344 9.113281 16.53125 9.148438 C 16.53125 9.183594 16.527344 9.222656 16.527344 9.257812 C 16.527344 9.292969 16.519531 9.328125 16.511719 9.363281 C 16.503906 9.398438 16.496094 9.429688 16.484375 9.464844 C 16.472656 9.496094 16.457031 9.527344 16.445312 9.558594 L 16.429688 9.554688 C 16.425781 9.523438 16.421875 9.488281 16.421875 9.453125 C 16.421875 9.421875 16.417969 9.390625 16.414062 9.355469 C 16.410156 9.324219 16.410156 9.292969 16.402344 9.261719 C 16.398438 9.230469 16.394531 9.199219 16.386719 9.167969 L 16.363281 9.078125 C 16.347656 9.050781 16.339844 9.023438 16.328125 8.996094 C 16.316406 8.96875 16.300781 8.945312 16.289062 8.917969 C 16.269531 8.894531 16.257812 8.871094 16.238281 8.847656 C 16.21875 8.828125 16.207031 8.804688 16.183594 8.789062 C 16.160156 8.769531 16.140625 8.75 16.117188 8.738281 C 16.105469 8.730469 16.09375 8.722656 16.078125 8.71875 L 16.039062 8.703125 C 16.015625 8.691406 15.984375 8.691406 15.957031 8.683594 C 15.929688 8.675781 15.898438 8.679688 15.867188 8.675781 C 15.839844 8.679688 15.808594 8.683594 15.777344 8.691406 C 15.746094 8.703125 15.714844 8.710938 15.6875 8.726562 C 15.660156 8.742188 15.632812 8.757812 15.605469 8.777344 L 15.558594 8.808594 L 15.566406 8.753906 C 15.566406 8.730469 15.570312 8.710938 15.570312 8.691406 C 15.570312 8.667969 15.566406 8.648438 15.5625 8.628906 C 15.554688 8.609375 15.546875 8.59375 15.535156 8.578125 C 15.523438 8.5625 15.511719 8.550781 15.496094 8.539062 C 15.4375 8.5 15.359375 8.488281 15.285156 8.484375 C 15.265625 8.484375 15.246094 8.484375 15.230469 8.484375 C 15.210938 8.488281 15.191406 8.492188 15.171875 8.496094 C 15.132812 8.5 15.097656 8.515625 15.066406 8.53125 C 15.050781 8.539062 15.035156 8.550781 15.023438 8.558594 C 15.011719 8.570312 15 8.585938 14.992188 8.601562 C 14.984375 8.617188 14.980469 8.632812 14.976562 8.652344 C 14.976562 8.671875 14.976562 8.695312 14.980469 8.71875 L 14.964844 8.726562 " fill-opacity="1" fill-rule="nonzero"/><path fill="#d9d9d9" d="M 17.175781 10.476562 C 17.175781 10.476562 17.191406 10.480469 17.21875 10.484375 C 17.234375 10.492188 17.253906 10.492188 17.269531 10.492188 C 17.28125 10.492188 17.289062 10.492188 17.300781 10.492188 C 17.308594 10.492188 17.320312 10.488281 17.332031 10.488281 C 17.355469 10.488281 17.378906 10.476562 17.40625 10.46875 C 17.429688 10.460938 17.457031 10.449219 17.480469 10.4375 C 17.503906 10.417969 17.53125 10.40625 17.550781 10.386719 C 17.578125 10.367188 17.597656 10.347656 17.617188 10.324219 C 17.636719 10.300781 17.65625 10.277344 17.667969 10.253906 C 17.675781 10.242188 17.683594 10.226562 17.6875 10.214844 C 17.695312 10.203125 17.699219 10.191406 17.707031 10.179688 C 17.71875 10.160156 17.726562 10.136719 17.738281 10.117188 C 17.742188 10.09375 17.757812 10.074219 17.757812 10.054688 C 17.761719 10.046875 17.765625 10.035156 17.765625 10.027344 C 17.769531 10.015625 17.769531 10.007812 17.769531 10 C 17.773438 9.980469 17.777344 9.964844 17.773438 9.949219 C 17.773438 9.921875 17.773438 9.902344 17.773438 9.902344 L 17.789062 9.894531 C 17.789062 9.894531 17.804688 9.902344 17.828125 9.925781 C 17.84375 9.9375 17.855469 9.957031 17.867188 9.976562 C 17.878906 10 17.890625 10.027344 17.894531 10.058594 C 17.902344 10.089844 17.898438 10.121094 17.894531 10.15625 C 17.886719 10.191406 17.878906 10.226562 17.859375 10.261719 C 17.851562 10.277344 17.84375 10.292969 17.832031 10.308594 C 17.820312 10.320312 17.804688 10.335938 17.792969 10.347656 C 17.765625 10.378906 17.738281 10.398438 17.707031 10.425781 C 17.679688 10.445312 17.648438 10.46875 17.617188 10.484375 C 17.585938 10.503906 17.550781 10.515625 17.519531 10.527344 C 17.484375 10.535156 17.453125 10.546875 17.421875 10.546875 C 17.390625 10.550781 17.363281 10.550781 17.335938 10.546875 C 17.320312 10.546875 17.308594 10.546875 17.296875 10.542969 C 17.285156 10.539062 17.273438 10.535156 17.261719 10.535156 C 17.238281 10.527344 17.222656 10.523438 17.210938 10.511719 C 17.183594 10.5 17.167969 10.488281 17.167969 10.488281 L 17.175781 10.476562 " fill-opacity="1" fill-rule="nonzero"/><path fill="#d9d9d9" d="M 13.085938 9.285156 C 13.085938 9.285156 13.082031 9.269531 13.070312 9.242188 C 13.066406 9.226562 13.0625 9.210938 13.0625 9.191406 C 13.058594 9.183594 13.058594 9.175781 13.058594 9.164062 C 13.058594 9.152344 13.058594 9.140625 13.058594 9.128906 C 13.058594 9.105469 13.066406 9.082031 13.070312 9.054688 C 13.078125 9.03125 13.089844 9.003906 13.097656 8.980469 C 13.113281 8.953125 13.125 8.925781 13.144531 8.902344 C 13.160156 8.878906 13.179688 8.855469 13.199219 8.832031 C 13.21875 8.8125 13.242188 8.789062 13.265625 8.777344 C 13.277344 8.769531 13.289062 8.761719 13.300781 8.753906 C 13.3125 8.746094 13.324219 8.738281 13.335938 8.734375 C 13.355469 8.71875 13.378906 8.710938 13.398438 8.695312 C 13.417969 8.6875 13.4375 8.675781 13.457031 8.667969 C 13.464844 8.667969 13.472656 8.664062 13.484375 8.660156 C 13.492188 8.65625 13.5 8.65625 13.511719 8.652344 C 13.527344 8.648438 13.542969 8.644531 13.558594 8.644531 C 13.585938 8.644531 13.605469 8.640625 13.605469 8.640625 L 13.613281 8.625 C 13.613281 8.625 13.605469 8.609375 13.578125 8.585938 C 13.566406 8.574219 13.546875 8.566406 13.523438 8.554688 C 13.5 8.542969 13.472656 8.539062 13.441406 8.535156 C 13.410156 8.53125 13.378906 8.535156 13.34375 8.542969 C 13.308594 8.550781 13.273438 8.566406 13.242188 8.585938 C 13.226562 8.597656 13.210938 8.605469 13.199219 8.617188 C 13.183594 8.632812 13.171875 8.644531 13.160156 8.660156 C 13.132812 8.6875 13.113281 8.71875 13.09375 8.75 C 13.074219 8.78125 13.054688 8.8125 13.039062 8.847656 C 13.023438 8.878906 13.015625 8.914062 13.007812 8.949219 C 13 8.980469 12.992188 9.015625 12.992188 9.046875 C 12.992188 9.078125 12.992188 9.105469 13 9.132812 C 13.003906 9.148438 13.003906 9.160156 13.007812 9.171875 C 13.011719 9.183594 13.015625 9.195312 13.019531 9.207031 C 13.027344 9.226562 13.035156 9.246094 13.046875 9.253906 C 13.0625 9.28125 13.070312 9.292969 13.070312 9.292969 L 13.085938 9.285156 " fill-opacity="1" fill-rule="nonzero"/><path fill="#231f20" d="M 15.320312 13.394531 C 14.964844 13.390625 14.28125 13.402344 14.40625 13.671875 C 14.476562 13.824219 14.84375 14.023438 15.3125 14.035156 C 15.78125 14.03125 16.152344 13.839844 16.226562 13.691406 C 16.355469 13.421875 15.675781 13.398438 15.320312 13.394531 " fill-opacity="1" fill-rule="nonzero"/><path fill="#231f20" d="M 15.445312 13.96875 C 15.484375 14.277344 15.402344 14.570312 15.128906 14.738281 C 14.828125 14.925781 14.429688 14.804688 14.148438 14.652344 C 14.042969 14.59375 14.136719 14.433594 14.242188 14.488281 C 14.46875 14.613281 14.714844 14.691406 14.96875 14.609375 C 15.246094 14.523438 15.289062 14.214844 15.261719 13.96875 C 15.246094 13.847656 15.433594 13.851562 15.445312 13.96875 " fill-opacity="1" fill-rule="nonzero"/><path fill="#231f20" d="M 15.492188 14.03125 C 15.488281 14.246094 15.574219 14.445312 15.75 14.570312 C 16.011719 14.757812 16.273438 14.546875 16.4375 14.34375 C 16.511719 14.246094 16.640625 14.378906 16.570312 14.472656 C 16.375 14.722656 16.058594 14.9375 15.738281 14.777344 C 15.457031 14.636719 15.296875 14.339844 15.304688 14.03125 C 15.308594 13.910156 15.496094 13.910156 15.492188 14.03125 " fill-opacity="1" fill-rule="nonzero"/><g clip-path="url(#d173647175)"><path fill="#ffffff" d="M 9.480469 24.65625 C 8.464844 24.539062 7.296875 24.933594 6.367188 24.375 C 5.460938 23.828125 5.550781 22.542969 5.59375 21.632812 C 5.6875 19.582031 6.183594 17.125 4.765625 15.375 C 4.429688 14.960938 4.007812 14.625 3.53125 14.414062 C 3.835938 14.253906 4.121094 14.042969 4.367188 13.796875 C 5.089844 13.078125 5.484375 12.113281 5.640625 11.117188 C 5.816406 9.996094 5.703125 8.863281 5.621094 7.738281 C 5.578125 7.160156 5.542969 6.578125 5.570312 5.996094 C 5.589844 5.578125 5.636719 5.074219 5.929688 4.746094 C 6.269531 4.367188 6.851562 4.269531 7.335938 4.257812 C 7.988281 4.242188 8.632812 4.347656 9.285156 4.269531 C 9.539062 4.238281 9.757812 3.601562 9.402344 3.644531 C 8.378906 3.769531 7.328125 3.429688 6.351562 3.875 C 5.414062 4.308594 5.113281 5.320312 5.070312 6.273438 C 5.019531 7.441406 5.203125 8.601562 5.230469 9.761719 C 5.257812 10.789062 5.167969 11.886719 4.632812 12.785156 C 4.117188 13.65625 3.121094 14.246094 2.101562 14.105469 C 1.878906 14.074219 1.648438 14.503906 1.753906 14.671875 C 1.761719 14.769531 1.816406 14.839844 1.941406 14.820312 C 2.863281 14.695312 3.769531 15.195312 4.335938 15.898438 C 4.996094 16.710938 5.214844 17.785156 5.25 18.804688 C 5.289062 19.949219 5.113281 21.085938 5.082031 22.222656 C 5.058594 23.148438 5.074219 24.296875 5.902344 24.898438 C 6.871094 25.597656 8.152344 25.160156 9.242188 25.289062 C 9.507812 25.324219 9.789062 24.695312 9.480469 24.65625 Z M 9.480469 24.65625 " fill-opacity="1" fill-rule="nonzero"/></g><g clip-path="url(#c89cc36f22)"><path fill="#ffffff" d="M 20.519531 24.644531 C 21.53125 24.523438 22.699219 24.917969 23.628906 24.359375 C 24.535156 23.816406 24.441406 22.53125 24.398438 21.621094 C 24.304688 19.574219 23.8125 17.117188 25.226562 15.375 C 25.5625 14.960938 25.984375 14.625 26.460938 14.414062 C 26.15625 14.25 25.871094 14.039062 25.625 13.796875 C 24.90625 13.078125 24.511719 12.113281 24.355469 11.121094 C 24.179688 10 24.289062 8.871094 24.375 7.746094 C 24.417969 7.167969 24.449219 6.585938 24.425781 6.007812 C 24.40625 5.585938 24.355469 5.085938 24.0625 4.757812 C 23.722656 4.378906 23.144531 4.28125 22.660156 4.269531 C 22.007812 4.253906 21.367188 4.355469 20.714844 4.28125 C 20.460938 4.25 20.242188 3.613281 20.597656 3.65625 C 21.617188 3.78125 22.667969 3.441406 23.644531 3.886719 C 24.582031 4.316406 24.882812 5.328125 24.925781 6.285156 C 24.976562 7.449219 24.792969 8.605469 24.761719 9.765625 C 24.734375 10.792969 24.824219 11.886719 25.359375 12.785156 C 25.875 13.65625 26.867188 14.246094 27.890625 14.101562 C 28.109375 14.070312 28.34375 14.503906 28.234375 14.671875 C 28.230469 14.769531 28.175781 14.835938 28.046875 14.820312 C 27.125 14.691406 26.222656 15.195312 25.65625 15.894531 C 25 16.707031 24.78125 17.777344 24.746094 18.796875 C 24.707031 19.941406 24.882812 21.074219 24.910156 22.210938 C 24.933594 23.136719 24.917969 24.285156 24.089844 24.882812 C 23.125 25.582031 21.847656 25.144531 20.757812 25.273438 C 20.492188 25.308594 20.210938 24.679688 20.519531 24.644531 Z M 20.519531 24.644531 " fill-opacity="1" fill-rule="nonzero"/></g></svg>