<svg xmlns="http://www.w3.org/2000/svg" xmlns:xlink="http://www.w3.org/1999/xlink" width="500" zoomAndPan="magnify" viewBox="0 0 375 187.499995" height="250" preserveAspectRatio="xMidYMid meet" version="1.0"><defs><g/><clipPath id="077beda3c2"><path d="M 218 127 L 306 127 L 306 165 L 218 165 Z M 218 127 " clip-rule="nonzero"/></clipPath><clipPath id="2028ca08ef"><path d="M 260.769531 90.445312 L 317.796875 144.839844 L 263.398438 201.867188 L 206.371094 147.472656 Z M 260.769531 90.445312 " clip-rule="nonzero"/></clipPath><clipPath id="9ee3f24a0b"><path d="M 260.769531 90.445312 L 317.796875 144.839844 L 263.398438 201.867188 L 206.371094 147.472656 Z M 260.769531 90.445312 " clip-rule="nonzero"/></clipPath><clipPath id="0df3544a57"><path d="M 167 29 L 209 29 L 209 101.128906 L 167 101.128906 Z M 167 29 " clip-rule="nonzero"/></clipPath><clipPath id="5733badcaa"><path d="M 113.332031 19 L 146.992188 19 L 146.992188 111 L 113.332031 111 Z M 113.332031 19 " clip-rule="nonzero"/></clipPath><clipPath id="8eec1a8416"><path d="M 228 19 L 260.992188 19 L 260.992188 111 L 228 111 Z M 228 19 " clip-rule="nonzero"/></clipPath></defs><g fill="#5e17eb" fill-opacity="1"><g transform="translate(34.813527, 166.555928)"><g><path d="M 7.25 -48.09375 C 13.332031 -48.644531 17.9375 -48.921875 21.0625 -48.921875 C 24.195312 -48.921875 26.789062 -48.484375 28.84375 -47.609375 C 30.894531 -46.734375 32.53125 -45.566406 33.75 -44.109375 C 34.96875 -42.660156 35.972656 -40.851562 36.765625 -38.6875 C 38.003906 -35.09375 38.625 -30.394531 38.625 -24.59375 C 38.625 -7.601562 32.703125 0.890625 20.859375 0.890625 L 7.25 0 Z M 20.109375 -4.21875 C 24.296875 -4.21875 27.035156 -4.863281 28.328125 -6.15625 C 30.859375 -8.6875 32.125 -14.84375 32.125 -24.625 C 32.125 -34.414062 30.90625 -40.375 28.46875 -42.5 C 27.40625 -43.414062 25.171875 -43.875 21.765625 -43.875 L 12.984375 -43.390625 L 13.0625 -4.90625 C 16.007812 -4.445312 18.359375 -4.21875 20.109375 -4.21875 Z M 20.109375 -4.21875 "/></g></g></g><g fill="#5e17eb" fill-opacity="1"><g transform="translate(75.774791, 166.555928)"><g><path d="M 20.859375 0.890625 C 10.179688 0.890625 4.84375 -6.109375 4.84375 -20.109375 C 4.84375 -34.109375 10.140625 -41.109375 20.734375 -41.109375 C 25.429688 -41.109375 28.953125 -39.644531 31.296875 -36.71875 C 33.648438 -33.789062 34.828125 -28.941406 34.828125 -22.171875 L 34.828125 -17.890625 L 10.921875 -17.890625 C 10.921875 -11.671875 11.910156 -7.640625 13.890625 -5.796875 C 15.128906 -4.691406 16.832031 -4.140625 19 -4.140625 C 22.863281 -4.140625 26.664062 -4.785156 30.40625 -6.078125 L 32.265625 -6.765625 L 33.71875 -2.078125 C 29.84375 -0.0976562 25.554688 0.890625 20.859375 0.890625 Z M 27.359375 -34.0625 C 26.441406 -35.445312 24.1875 -36.140625 20.59375 -36.140625 C 17 -36.140625 14.488281 -35.191406 13.0625 -33.296875 C 11.632812 -31.410156 10.921875 -27.796875 10.921875 -22.453125 L 28.953125 -22.796875 C 28.953125 -28.554688 28.421875 -32.3125 27.359375 -34.0625 Z M 27.359375 -34.0625 "/></g></g></g><g fill="#5e17eb" fill-opacity="1"><g transform="translate(112.453351, 166.555928)"><g><path d="M 31.71875 -40.21875 L 19.765625 0 L 12.640625 0 L 0.96875 -40.21875 L 7.1875 -40.21875 L 16.03125 -4.703125 L 16.4375 -4.703125 L 25.5 -40.21875 Z M 31.71875 -40.21875 "/></g></g></g><g fill="#5e17eb" fill-opacity="1"><g transform="translate(142.569724, 166.555928)"><g><path d="M 21.078125 -36.0625 C 17.578125 -36.0625 15.226562 -35.460938 14.03125 -34.265625 C 13.101562 -33.253906 12.335938 -31.445312 11.734375 -28.84375 C 11.140625 -26.238281 10.84375 -23.234375 10.84375 -19.828125 C 10.84375 -12.085938 12.316406 -7.207031 15.265625 -5.1875 C 16.285156 -4.445312 17.632812 -4.078125 19.3125 -4.078125 C 20.988281 -4.078125 22.804688 -4.34375 24.765625 -4.875 C 26.722656 -5.40625 28.851562 -6.195312 31.15625 -7.25 L 32.953125 -2.765625 C 32.585938 -2.484375 32.070312 -2.132812 31.40625 -1.71875 C 30.738281 -1.3125 29.332031 -0.773438 27.1875 -0.109375 C 25.039062 0.554688 22.890625 0.890625 20.734375 0.890625 C 15.753906 0.890625 11.859375 -0.820312 9.046875 -4.25 C 6.242188 -7.675781 4.84375 -13.109375 4.84375 -20.546875 C 4.84375 -27.992188 6.382812 -33.28125 9.46875 -36.40625 C 12.550781 -39.539062 16.785156 -41.109375 22.171875 -41.109375 C 25.679688 -41.109375 28.953125 -40.738281 31.984375 -40 L 31.296875 -35.171875 C 26.328125 -35.765625 22.921875 -36.0625 21.078125 -36.0625 Z M 21.078125 -36.0625 "/></g></g></g><g fill="#5e17eb" fill-opacity="1"><g transform="translate(175.725432, 166.555928)"><g><path d="M 11.609375 0 L 5.875 0 L 5.875 -52.03125 L 11.609375 -52.03125 L 11.609375 -37.71875 C 16.816406 -39.976562 20.867188 -41.109375 23.765625 -41.109375 C 27.679688 -41.109375 30.410156 -39.941406 31.953125 -37.609375 C 33.492188 -35.285156 34.265625 -31.660156 34.265625 -26.734375 L 34.265625 0 L 28.53125 0 L 28.53125 -24.734375 C 28.53125 -29.753906 28.070312 -32.929688 27.15625 -34.265625 C 26.46875 -35.234375 25.242188 -35.71875 23.484375 -35.71875 C 20.171875 -35.71875 16.785156 -35.003906 13.328125 -33.578125 L 11.609375 -32.8125 Z M 11.609375 0 "/></g></g></g><g fill="#5e17eb" fill-opacity="1"><g transform="translate(213.444906, 166.555928)"><g/></g></g><g fill="#5e17eb" fill-opacity="1"><g transform="translate(226.36144, 166.555928)"><g/></g></g><g fill="#5e17eb" fill-opacity="1"><g transform="translate(239.277974, 166.555928)"><g/></g></g><g fill="#5e17eb" fill-opacity="1"><g transform="translate(252.194508, 166.555928)"><g/></g></g><g fill="#5e17eb" fill-opacity="1"><g transform="translate(265.111042, 166.555928)"><g/></g></g><g fill="#5e17eb" fill-opacity="1"><g transform="translate(278.027575, 166.555928)"><g/></g></g><g fill="#5e17eb" fill-opacity="1"><g transform="translate(290.944109, 166.555928)"><g/></g></g><g fill="#5e17eb" fill-opacity="1"><g transform="translate(303.860643, 166.555928)"><g/></g></g><g fill="#5e17eb" fill-opacity="1"><g transform="translate(316.777177, 166.555928)"><g/></g></g><g fill="#5e17eb" fill-opacity="1"><g transform="translate(329.693711, 166.555928)"><g/></g></g><g clip-path="url(#077beda3c2)"><g clip-path="url(#2028ca08ef)"><g clip-path="url(#9ee3f24a0b)"><path fill="#8c52ff" d="M 271.902344 150.617188 C 271.824219 147.324219 271.738281 143.679688 271.660156 140.382812 C 271.496094 133.398438 264.59375 127.609375 255.96875 127.8125 C 249.074219 127.976562 240.617188 128.175781 233.722656 128.339844 C 225.09375 128.542969 218.476562 134.652344 218.640625 141.636719 C 218.71875 144.933594 218.804688 148.574219 218.882812 151.871094 C 219.050781 158.855469 225.945312 164.644531 234.574219 164.441406 C 239.464844 164.324219 245.148438 164.191406 250.5 164.066406 C 251.878906 164.03125 252.976562 162.882812 252.945312 161.5 C 252.914062 160.117188 251.765625 159.019531 250.378906 159.054688 C 245.03125 159.179688 239.347656 159.316406 234.457031 159.429688 C 228.855469 159.5625 224.003906 156.289062 223.894531 151.753906 C 223.894531 151.753906 223.652344 141.519531 223.652344 141.519531 C 223.546875 136.980469 228.238281 133.484375 233.839844 133.351562 C 240.734375 133.1875 249.195312 132.988281 256.085938 132.828125 C 261.691406 132.691406 266.542969 135.964844 266.648438 140.503906 C 266.648438 140.503906 266.890625 150.738281 266.890625 150.738281 C 266.921875 152.121094 268.074219 153.214844 269.457031 153.183594 C 270.835938 153.152344 271.933594 152 271.902344 150.617188 Z M 252.246094 140.84375 C 252.324219 144.136719 252.410156 147.78125 252.488281 151.078125 C 252.652344 158.0625 259.554688 163.851562 268.179688 163.648438 C 275.074219 163.484375 283.53125 163.285156 290.425781 163.121094 C 299.054688 162.917969 305.671875 156.808594 305.503906 149.824219 C 305.425781 146.527344 305.339844 142.886719 305.261719 139.589844 C 305.097656 132.605469 298.203125 126.816406 289.570312 127.019531 C 284.679688 127.136719 279 127.269531 273.648438 127.394531 C 272.265625 127.429688 271.167969 128.578125 271.203125 129.960938 C 271.234375 131.34375 272.382812 132.441406 273.765625 132.40625 C 279.117188 132.28125 284.800781 132.148438 289.691406 132.03125 C 295.292969 131.898438 300.144531 135.171875 300.253906 139.707031 C 300.253906 139.707031 300.492188 149.941406 300.492188 149.941406 C 300.601562 154.480469 295.910156 157.976562 290.304688 158.109375 C 283.414062 158.273438 274.953125 158.472656 268.0625 158.632812 C 262.457031 158.769531 257.605469 155.496094 257.5 150.960938 C 257.5 150.960938 257.257812 140.722656 257.257812 140.722656 C 257.222656 139.34375 256.074219 138.246094 254.691406 138.277344 C 253.308594 138.308594 252.214844 139.460938 252.246094 140.84375 Z M 252.246094 140.84375 " fill-opacity="1" fill-rule="evenodd"/></g></g></g><g fill="#5e17eb" fill-opacity="1"><g transform="translate(306.033172, 166.555928)"><g><path d="M 12.71875 0 L 6.984375 0 L 6.984375 -40.21875 L 10.84375 -40.21875 L 11.46875 -36.28125 L 11.8125 -36.28125 C 17.34375 -39.5 22.132812 -41.109375 26.1875 -41.109375 C 29.820312 -41.109375 32.332031 -39.703125 33.71875 -36.890625 C 34.863281 -34.546875 35.4375 -31.160156 35.4375 -26.734375 L 35.4375 0 L 29.640625 0 L 29.640625 -24.734375 C 29.640625 -29.984375 29.304688 -33.113281 28.640625 -34.125 C 27.972656 -35.144531 26.71875 -35.65625 24.875 -35.65625 C 21.375 -35.65625 17.320312 -34.429688 12.71875 -31.984375 Z M 12.71875 0 "/></g></g></g><g clip-path="url(#0df3544a57)"><path fill="#5e17eb" d="M 167.824219 74.789062 C 168.347656 78.894531 170.019531 80.066406 170.019531 80.066406 C 167.152344 81.59375 167.59375 85.886719 168.441406 87.5 C 168.972656 88.519531 169.707031 88.550781 169.707031 88.550781 C 167.109375 92.394531 170.195312 95.125 170.195312 95.125 C 169.523438 97.296875 169.332031 99.441406 169.601562 101.128906 L 208.050781 101.128906 C 208.273438 100.519531 208.515625 99.417969 208.207031 97.476562 C 207.558594 93.445312 206.261719 91.804688 205.976562 91.492188 C 205.976562 91.480469 208.433594 87.878906 208.207031 84.65625 C 207.84375 79.5 206.496094 78.75 206.496094 78.75 C 209.085938 75.226562 207.335938 71.582031 206.339844 70.359375 C 206.320312 69.917969 207.71875 65.140625 206.730469 60.878906 C 206.398438 59.460938 205.664062 55.445312 205.511719 55.242188 C 205.667969 54.75 206.585938 52.984375 205.125 49.480469 C 204.515625 48.019531 203.65625 46.8125 203.070312 46.078125 C 202.816406 45.460938 202.644531 45.082031 202.644531 45.082031 C 205.109375 37.117188 203.738281 28.898438 202.390625 29.007812 C 199.839844 29.214844 196.320312 38.648438 196.070312 39.277344 C 195.972656 39.519531 193.3125 39.71875 190.351562 39.929688 C 187.601562 39.71875 184.777344 39.570312 183.300781 39.804688 C 181.457031 40.101562 179.890625 40.652344 178.601562 41.246094 C 176.832031 41.5 176.171875 41.550781 176.070312 41.339844 C 175.488281 40.167969 173.628906 31.933594 170.292969 29.898438 C 168.507812 28.8125 166.242188 42.734375 170.6875 47.054688 C 170.6875 47.054688 171.007812 48.359375 171.1875 49.433594 C 169.910156 52.234375 171.089844 56.007812 171.089844 56.007812 C 165.8125 58.199219 170.492188 66 170.492188 66 C 169.320312 67.265625 167.0625 68.820312 167.824219 74.789062 " fill-opacity="1" fill-rule="nonzero"/></g><path fill="#ffffff" d="M 170.785156 33.101562 C 169.707031 31.21875 167.316406 40.136719 171.925781 44.496094 C 173.054688 45.5625 173.089844 43.734375 172.300781 38.460938 C 172.027344 36.652344 171.5625 34.460938 170.785156 33.101562 " fill-opacity="1" fill-rule="nonzero"/><path fill="#ffffff" d="M 201.328125 32.1875 C 202.507812 30.371094 204.40625 39.40625 199.5625 43.503906 C 198.375 44.507812 198.441406 42.679688 199.519531 37.457031 C 199.890625 35.664062 200.476562 33.503906 201.328125 32.1875 " fill-opacity="1" fill-rule="nonzero"/><path fill="#ffffff" d="M 200.136719 50.292969 C 197.167969 47.226562 188.300781 47.964844 188.300781 47.964844 C 188.300781 47.964844 179.457031 46.953125 176.394531 49.925781 C 176.394531 49.925781 166.675781 71.574219 187.921875 72.054688 C 209.175781 72.238281 200.136719 50.292969 200.136719 50.292969 " fill-opacity="1" fill-rule="nonzero"/><path fill="#ffffff" d="M 197.558594 56.914062 C 199.292969 56.914062 200.699219 57.890625 200.699219 59.09375 C 200.699219 60.296875 199.292969 61.273438 197.558594 61.273438 C 195.820312 61.273438 194.417969 60.296875 194.417969 59.09375 C 194.417969 57.890625 195.820312 56.914062 197.558594 56.914062 " fill-opacity="1" fill-rule="nonzero"/><path fill="#ffffff" d="M 179.210938 57.28125 C 180.945312 57.28125 182.351562 58.257812 182.351562 59.460938 C 182.351562 60.664062 180.945312 61.640625 179.210938 61.640625 C 177.476562 61.640625 176.070312 60.664062 176.070312 59.460938 C 176.070312 58.257812 177.476562 57.28125 179.210938 57.28125 " fill-opacity="1" fill-rule="nonzero"/><path fill="#231f20" d="M 194.832031 55.226562 C 194.824219 55.804688 194.351562 56.265625 193.773438 56.257812 C 193.195312 56.25 192.734375 55.769531 192.742188 55.195312 C 192.75 54.617188 193.234375 53.71875 193.8125 53.726562 C 194.390625 53.734375 194.839844 54.648438 194.832031 55.226562 " fill-opacity="1" fill-rule="nonzero"/><path fill="#231f20" d="M 183.542969 55.472656 C 183.535156 56.050781 183.058594 56.511719 182.480469 56.5 C 181.90625 56.492188 181.441406 56.015625 181.449219 55.441406 C 181.460938 54.859375 181.945312 53.964844 182.519531 53.972656 C 183.097656 53.980469 183.550781 54.894531 183.542969 55.472656 " fill-opacity="1" fill-rule="nonzero"/><path fill="#ffffff" d="M 197.246094 64.335938 C 197.289062 61.632812 193.132812 58.449219 188.695312 58.382812 C 184.261719 58.3125 180.261719 61.28125 180.21875 63.984375 C 180.199219 65.425781 181.5 66.144531 183.019531 67.195312 C 184.566406 68.261719 186.183594 70.652344 188.632812 70.691406 C 191.089844 70.730469 192.78125 68.367188 194.363281 67.351562 C 195.898438 66.367188 197.222656 65.734375 197.246094 64.335938 " fill-opacity="1" fill-rule="nonzero"/><path fill="#5e17eb" d="M 201.734375 44.785156 C 201.632812 43.859375 200.902344 43.070312 199.992188 43.109375 C 200.464844 42.347656 200.777344 40.617188 199.183594 39.847656 C 198.199219 39.371094 197.039062 40.234375 197.039062 40.234375 C 197.039062 40.234375 196.851562 38.25 194.710938 37.867188 C 192.4375 37.460938 191.210938 39.699219 191.210938 39.699219 C 191.242188 37.917969 188.203125 36.859375 186.519531 37.152344 C 184.449219 37.515625 183.460938 39.019531 183.460938 39.019531 C 179.382812 36.53125 177.839844 40.425781 177.839844 40.425781 C 176.9375 38.230469 173.6875 38.90625 172.675781 40.230469 C 171.378906 41.933594 172.90625 43.375 172.90625 43.375 C 172.90625 43.375 170.101562 45.28125 171.332031 47.492188 C 172.71875 49.988281 175.367188 48.449219 175.367188 48.449219 C 176.425781 53.746094 180.546875 49.128906 180.546875 49.128906 C 180.84375 51.597656 181.925781 53.722656 185.039062 53.011719 C 187.179688 52.519531 187.84375 49.714844 187.84375 49.714844 C 188.59375 52.597656 190.828125 52.1875 191.679688 51.355469 C 192.214844 50.832031 192.246094 50.097656 192.246094 50.097656 C 194.199219 52.726562 195.664062 49.664062 195.664062 49.664062 C 197.386719 50.726562 199.09375 50.652344 199.964844 49.492188 C 200.457031 48.839844 200.597656 48.101562 200.34375 46.890625 C 201.0625 46.6875 201.875 46.082031 201.734375 44.785156 " fill-opacity="1" fill-rule="nonzero"/><path fill="#ffffff" d="M 173.761719 44.113281 C 173.664062 44.140625 173.574219 44.175781 173.507812 44.214844 C 173.4375 44.261719 173.375 44.308594 173.332031 44.367188 C 173.289062 44.425781 173.253906 44.484375 173.234375 44.554688 C 173.210938 44.621094 173.199219 44.695312 173.191406 44.769531 C 173.183594 44.917969 173.195312 45.078125 173.238281 45.230469 C 173.257812 45.308594 173.277344 45.382812 173.304688 45.460938 C 173.332031 45.535156 173.363281 45.609375 173.402344 45.679688 C 173.542969 45.957031 173.710938 46.226562 173.96875 46.382812 C 174.03125 46.421875 174.105469 46.449219 174.179688 46.46875 C 174.257812 46.480469 174.339844 46.488281 174.421875 46.476562 C 174.503906 46.460938 174.589844 46.445312 174.667969 46.40625 C 174.75 46.375 174.820312 46.324219 174.898438 46.277344 L 175.09375 46.15625 L 175.0625 46.386719 C 175.042969 46.523438 175.015625 46.65625 175.003906 46.789062 C 175 46.921875 175.019531 47.058594 175.03125 47.1875 C 175.058594 47.316406 175.101562 47.441406 175.136719 47.5625 C 175.199219 47.671875 175.246094 47.789062 175.3125 47.890625 C 175.394531 47.984375 175.445312 48.089844 175.535156 48.167969 C 175.578125 48.210938 175.617188 48.25 175.65625 48.292969 C 175.703125 48.328125 175.753906 48.359375 175.800781 48.394531 C 175.886719 48.472656 176 48.511719 176.101562 48.5625 C 176.203125 48.621094 176.324219 48.632812 176.433594 48.671875 C 176.546875 48.703125 176.667969 48.710938 176.785156 48.738281 C 176.90625 48.742188 177.027344 48.75 177.148438 48.757812 C 177.269531 48.75 177.394531 48.738281 177.523438 48.738281 L 177.898438 48.675781 C 178.027344 48.65625 178.152344 48.613281 178.28125 48.582031 C 178.414062 48.558594 178.535156 48.503906 178.664062 48.460938 C 178.792969 48.421875 178.925781 48.378906 179.050781 48.320312 C 179.179688 48.265625 179.3125 48.214844 179.449219 48.164062 L 179.488281 48.21875 C 179.394531 48.328125 179.296875 48.433594 179.191406 48.535156 C 179.089844 48.644531 178.972656 48.730469 178.855469 48.816406 C 178.734375 48.902344 178.617188 48.996094 178.484375 49.0625 C 178.351562 49.128906 178.21875 49.207031 178.078125 49.261719 C 177.933594 49.3125 177.792969 49.359375 177.644531 49.40625 C 177.492188 49.4375 177.339844 49.460938 177.183594 49.484375 C 177.027344 49.488281 176.867188 49.492188 176.707031 49.484375 C 176.550781 49.457031 176.390625 49.4375 176.234375 49.390625 C 176.085938 49.328125 175.925781 49.289062 175.785156 49.195312 C 175.644531 49.113281 175.5 49.03125 175.386719 48.914062 C 175.324219 48.855469 175.261719 48.804688 175.203125 48.742188 L 175.058594 48.546875 C 174.949219 48.425781 174.898438 48.261719 174.832031 48.121094 C 174.773438 47.972656 174.757812 47.808594 174.722656 47.660156 C 174.71875 47.503906 174.710938 47.351562 174.714844 47.203125 C 174.734375 47.054688 174.746094 46.90625 174.765625 46.761719 C 174.804688 46.621094 174.828125 46.476562 174.855469 46.335938 L 175.019531 46.449219 C 174.855469 46.558594 174.6875 46.667969 174.484375 46.738281 C 174.386719 46.769531 174.28125 46.796875 174.167969 46.804688 C 174.058594 46.8125 173.945312 46.808594 173.828125 46.785156 C 173.601562 46.742188 173.394531 46.628906 173.222656 46.480469 C 173.140625 46.402344 173.066406 46.320312 173 46.230469 C 172.933594 46.144531 172.878906 46.046875 172.832031 45.949219 C 172.746094 45.75 172.683594 45.542969 172.65625 45.324219 C 172.648438 45.214844 172.644531 45.105469 172.652344 44.996094 C 172.660156 44.886719 172.679688 44.773438 172.714844 44.664062 C 172.753906 44.558594 172.796875 44.449219 172.867188 44.351562 C 172.9375 44.253906 173.027344 44.171875 173.128906 44.109375 C 173.230469 44.050781 173.339844 44.019531 173.449219 44.007812 C 173.507812 44.007812 173.5625 44.007812 173.613281 44.011719 L 173.757812 44.042969 L 173.761719 44.113281 " fill-opacity="1" fill-rule="nonzero"/><path fill="#ffffff" d="M 187.363281 40.808594 L 187.277344 40.691406 C 187.25 40.648438 187.230469 40.597656 187.207031 40.542969 C 187.171875 40.441406 187.15625 40.328125 187.164062 40.207031 C 187.179688 40.089844 187.21875 39.972656 187.277344 39.871094 C 187.335938 39.765625 187.417969 39.683594 187.5 39.601562 C 187.585938 39.527344 187.675781 39.460938 187.773438 39.410156 C 187.875 39.355469 187.972656 39.3125 188.078125 39.277344 C 188.285156 39.210938 188.5 39.179688 188.714844 39.175781 C 188.824219 39.179688 188.933594 39.1875 189.042969 39.210938 C 189.152344 39.234375 189.257812 39.269531 189.363281 39.3125 C 189.566406 39.40625 189.757812 39.550781 189.890625 39.738281 C 189.960938 39.832031 190.011719 39.933594 190.050781 40.039062 C 190.085938 40.144531 190.105469 40.25 190.117188 40.355469 C 190.136719 40.566406 190.109375 40.765625 190.078125 40.960938 L 189.90625 40.859375 C 190.023438 40.773438 190.144531 40.691406 190.257812 40.601562 C 190.378906 40.523438 190.511719 40.449219 190.636719 40.371094 C 190.769531 40.304688 190.914062 40.25 191.058594 40.1875 C 191.207031 40.15625 191.359375 40.105469 191.519531 40.097656 C 191.679688 40.097656 191.84375 40.078125 192.003906 40.125 L 192.242188 40.175781 C 192.320312 40.203125 192.394531 40.238281 192.472656 40.269531 C 192.628906 40.328125 192.761719 40.421875 192.894531 40.519531 C 193.035156 40.605469 193.136719 40.734375 193.257812 40.84375 C 193.363281 40.96875 193.449219 41.105469 193.542969 41.238281 C 193.613281 41.378906 193.675781 41.527344 193.738281 41.671875 C 193.78125 41.820312 193.820312 41.972656 193.855469 42.121094 C 193.875 42.273438 193.890625 42.425781 193.90625 42.578125 C 193.914062 42.730469 193.898438 42.878906 193.890625 43.027344 C 193.886719 43.179688 193.851562 43.324219 193.824219 43.46875 C 193.792969 43.613281 193.765625 43.753906 193.707031 43.890625 C 193.65625 44.027344 193.601562 44.164062 193.542969 44.292969 L 193.476562 44.277344 C 193.460938 44.132812 193.453125 43.992188 193.453125 43.855469 C 193.453125 43.714844 193.4375 43.578125 193.421875 43.441406 C 193.40625 43.308594 193.40625 43.171875 193.375 43.042969 C 193.347656 42.914062 193.335938 42.78125 193.300781 42.65625 L 193.199219 42.285156 C 193.148438 42.171875 193.105469 42.054688 193.0625 41.9375 C 193.003906 41.832031 192.945312 41.722656 192.890625 41.617188 C 192.820312 41.523438 192.761719 41.417969 192.6875 41.324219 C 192.609375 41.242188 192.546875 41.136719 192.453125 41.066406 C 192.359375 40.996094 192.277344 40.910156 192.171875 40.863281 C 192.121094 40.835938 192.074219 40.800781 192.019531 40.777344 L 191.855469 40.71875 C 191.75 40.664062 191.628906 40.664062 191.511719 40.632812 C 191.390625 40.609375 191.265625 40.617188 191.136719 40.605469 C 191.011719 40.625 190.882812 40.636719 190.753906 40.664062 C 190.632812 40.710938 190.5 40.746094 190.382812 40.808594 C 190.265625 40.875 190.152344 40.949219 190.039062 41.023438 L 189.84375 41.148438 L 189.871094 40.921875 C 189.882812 40.832031 189.902344 40.746094 189.894531 40.660156 C 189.894531 40.570312 189.875 40.488281 189.855469 40.40625 C 189.832031 40.324219 189.789062 40.253906 189.746094 40.191406 C 189.699219 40.128906 189.640625 40.074219 189.582031 40.03125 C 189.332031 39.859375 189.019531 39.820312 188.707031 39.804688 C 188.625 39.800781 188.546875 39.804688 188.46875 39.808594 C 188.386719 39.816406 188.308594 39.828125 188.230469 39.84375 C 188.074219 39.871094 187.925781 39.925781 187.792969 39.992188 C 187.726562 40.03125 187.667969 40.070312 187.613281 40.121094 C 187.558594 40.167969 187.519531 40.222656 187.484375 40.289062 C 187.449219 40.351562 187.429688 40.429688 187.417969 40.511719 C 187.410156 40.585938 187.417969 40.683594 187.429688 40.785156 L 187.363281 40.808594 " fill-opacity="1" fill-rule="nonzero"/><path fill="#ffffff" d="M 196.597656 48.113281 C 196.597656 48.113281 196.664062 48.128906 196.785156 48.160156 C 196.84375 48.179688 196.917969 48.183594 196.992188 48.183594 C 197.03125 48.183594 197.074219 48.1875 197.113281 48.1875 C 197.160156 48.183594 197.207031 48.175781 197.253906 48.167969 C 197.351562 48.164062 197.453125 48.125 197.554688 48.09375 C 197.660156 48.058594 197.765625 48.003906 197.871094 47.953125 C 197.96875 47.882812 198.078125 47.824219 198.171875 47.742188 C 198.273438 47.667969 198.359375 47.578125 198.445312 47.488281 C 198.523438 47.390625 198.605469 47.296875 198.65625 47.1875 C 198.683594 47.136719 198.710938 47.082031 198.738281 47.035156 C 198.757812 46.980469 198.785156 46.933594 198.808594 46.886719 C 198.863281 46.792969 198.894531 46.699219 198.941406 46.613281 C 198.964844 46.527344 199.023438 46.445312 199.03125 46.363281 C 199.042969 46.324219 199.054688 46.28125 199.066406 46.242188 C 199.078125 46.203125 199.074219 46.167969 199.082031 46.128906 C 199.09375 46.054688 199.105469 45.980469 199.101562 45.925781 C 199.097656 45.808594 199.101562 45.722656 199.101562 45.722656 L 199.160156 45.683594 C 199.160156 45.683594 199.226562 45.722656 199.328125 45.824219 C 199.386719 45.875 199.433594 45.945312 199.480469 46.039062 C 199.535156 46.128906 199.574219 46.242188 199.59375 46.367188 C 199.625 46.5 199.609375 46.636719 199.597656 46.785156 C 199.570312 46.925781 199.53125 47.082031 199.457031 47.214844 C 199.417969 47.28125 199.378906 47.351562 199.332031 47.414062 C 199.285156 47.476562 199.226562 47.53125 199.175781 47.589844 C 199.066406 47.707031 198.941406 47.800781 198.824219 47.902344 C 198.695312 47.992188 198.574219 48.085938 198.4375 48.152344 C 198.308594 48.234375 198.164062 48.277344 198.03125 48.328125 C 197.890625 48.363281 197.757812 48.40625 197.628906 48.414062 C 197.496094 48.425781 197.375 48.4375 197.257812 48.417969 C 197.203125 48.414062 197.148438 48.40625 197.097656 48.402344 C 197.046875 48.386719 197 48.371094 196.953125 48.359375 C 196.859375 48.335938 196.789062 48.308594 196.738281 48.273438 C 196.632812 48.210938 196.570312 48.179688 196.570312 48.179688 L 196.597656 48.113281 " fill-opacity="1" fill-rule="nonzero"/><path fill="#ffffff" d="M 179.519531 43.148438 C 179.519531 43.148438 179.5 43.082031 179.457031 42.964844 C 179.433594 42.90625 179.425781 42.835938 179.417969 42.757812 C 179.414062 42.71875 179.40625 42.679688 179.402344 42.636719 C 179.40625 42.59375 179.40625 42.546875 179.410156 42.496094 C 179.410156 42.402344 179.4375 42.296875 179.460938 42.191406 C 179.484375 42.085938 179.535156 41.976562 179.578125 41.867188 C 179.636719 41.761719 179.683594 41.648438 179.757812 41.550781 C 179.824219 41.441406 179.90625 41.347656 179.988281 41.253906 C 180.078125 41.167969 180.167969 41.082031 180.269531 41.019531 C 180.320312 40.988281 180.371094 40.957031 180.417969 40.921875 C 180.46875 40.898438 180.515625 40.871094 180.558594 40.84375 C 180.648438 40.78125 180.738281 40.742188 180.820312 40.6875 C 180.902344 40.65625 180.980469 40.59375 181.0625 40.574219 C 181.101562 40.5625 181.140625 40.546875 181.179688 40.527344 C 181.21875 40.519531 181.253906 40.515625 181.289062 40.503906 C 181.363281 40.488281 181.433594 40.46875 181.492188 40.472656 C 181.609375 40.464844 181.695312 40.453125 181.695312 40.453125 L 181.726562 40.390625 C 181.726562 40.390625 181.679688 40.332031 181.570312 40.234375 C 181.519531 40.179688 181.445312 40.140625 181.347656 40.101562 C 181.253906 40.054688 181.136719 40.023438 181.007812 40.019531 C 180.875 39.996094 180.742188 40.023438 180.59375 40.046875 C 180.457031 40.085938 180.304688 40.136719 180.175781 40.222656 C 180.113281 40.269531 180.050781 40.3125 179.988281 40.363281 C 179.929688 40.417969 179.878906 40.476562 179.824219 40.535156 C 179.71875 40.652344 179.636719 40.785156 179.546875 40.914062 C 179.464844 41.046875 179.382812 41.175781 179.328125 41.320312 C 179.257812 41.453125 179.226562 41.601562 179.1875 41.738281 C 179.164062 41.878906 179.128906 42.015625 179.132812 42.148438 C 179.132812 42.28125 179.132812 42.402344 179.160156 42.515625 C 179.171875 42.570312 179.183594 42.621094 179.191406 42.671875 C 179.210938 42.722656 179.230469 42.769531 179.246094 42.816406 C 179.277344 42.902344 179.308594 42.976562 179.347656 43.019531 C 179.417969 43.121094 179.457031 43.179688 179.457031 43.179688 L 179.519531 43.148438 " fill-opacity="1" fill-rule="nonzero"/><path fill="#231f20" d="M 188.84375 60.3125 C 187.359375 60.296875 184.515625 60.332031 185.039062 61.464844 C 185.328125 62.09375 186.855469 62.925781 188.820312 62.972656 C 190.78125 62.964844 192.328125 62.164062 192.628906 61.542969 C 193.171875 60.417969 190.332031 60.324219 188.84375 60.3125 " fill-opacity="1" fill-rule="nonzero"/><path fill="#231f20" d="M 189.378906 62.699219 C 189.535156 63.984375 189.1875 65.207031 188.046875 65.917969 C 186.789062 66.703125 185.136719 66.199219 183.949219 65.550781 C 183.511719 65.308594 183.902344 64.636719 184.34375 64.878906 C 185.289062 65.398438 186.320312 65.714844 187.382812 65.375 C 188.53125 65.011719 188.726562 63.722656 188.601562 62.699219 C 188.539062 62.203125 189.316406 62.207031 189.378906 62.699219 " fill-opacity="1" fill-rule="nonzero"/><path fill="#231f20" d="M 189.566406 62.960938 C 189.542969 63.851562 189.917969 64.691406 190.644531 65.222656 C 191.730469 66.003906 192.835938 65.121094 193.511719 64.261719 C 193.824219 63.867188 194.367188 64.421875 194.0625 64.8125 C 193.246094 65.851562 191.933594 66.742188 190.589844 66.078125 C 189.425781 65.5 188.757812 64.246094 188.792969 62.960938 C 188.804688 62.460938 189.582031 62.460938 189.566406 62.960938 " fill-opacity="1" fill-rule="nonzero"/><g clip-path="url(#5733badcaa)"><path fill="#5e17eb" d="M 146.015625 107.292969 C 141.785156 106.789062 136.898438 108.449219 133.015625 106.109375 C 129.242188 103.835938 129.625 98.460938 129.800781 94.671875 C 130.191406 86.109375 132.25 75.851562 126.347656 68.5625 C 124.949219 66.832031 123.171875 65.429688 121.1875 64.550781 C 122.464844 63.871094 123.648438 62.988281 124.671875 61.96875 C 127.6875 58.976562 129.339844 54.941406 129.988281 50.785156 C 130.722656 46.101562 130.257812 41.382812 129.910156 36.691406 C 129.730469 34.273438 129.585938 31.84375 129.695312 29.421875 C 129.773438 27.667969 129.980469 25.570312 131.203125 24.203125 C 132.625 22.613281 135.042969 22.214844 137.066406 22.167969 C 139.789062 22.105469 142.476562 22.53125 145.195312 22.207031 C 146.265625 22.078125 147.175781 19.429688 145.683594 19.609375 C 141.417969 20.117188 137.035156 18.699219 132.957031 20.570312 C 129.039062 22.367188 127.785156 26.589844 127.609375 30.578125 C 127.394531 35.445312 128.164062 40.28125 128.289062 45.136719 C 128.398438 49.421875 128.019531 53.988281 125.789062 57.753906 C 123.636719 61.382812 119.488281 63.847656 115.21875 63.25 C 114.296875 63.121094 113.328125 64.925781 113.777344 65.625 C 113.800781 66.035156 114.027344 66.320312 114.554688 66.246094 C 118.40625 65.710938 122.175781 67.8125 124.550781 70.742188 C 127.300781 74.136719 128.210938 78.605469 128.359375 82.875 C 128.523438 87.640625 127.785156 92.378906 127.667969 97.136719 C 127.570312 100.992188 127.632812 105.792969 131.089844 108.292969 C 135.125 111.21875 140.46875 109.390625 145.015625 109.933594 C 146.132812 110.070312 147.296875 107.445312 146.015625 107.292969 Z M 146.015625 107.292969 " fill-opacity="1" fill-rule="nonzero"/></g><g clip-path="url(#8eec1a8416)"><path fill="#5e17eb" d="M 228.625 107.300781 C 232.855469 106.796875 237.742188 108.457031 241.625 106.117188 C 245.398438 103.84375 245.015625 98.46875 244.839844 94.679688 C 244.449219 86.117188 242.390625 75.863281 248.292969 68.570312 C 249.691406 66.84375 251.46875 65.4375 253.453125 64.558594 C 252.175781 63.882812 250.992188 62.996094 249.964844 61.976562 C 246.953125 58.984375 245.300781 54.949219 244.652344 50.796875 C 243.917969 46.113281 244.382812 41.394531 244.730469 36.699219 C 244.910156 34.28125 245.054688 31.851562 244.945312 29.429688 C 244.867188 27.679688 244.660156 25.582031 243.4375 24.210938 C 242.015625 22.625 239.597656 22.222656 237.574219 22.175781 C 234.851562 22.113281 232.164062 22.539062 229.445312 22.214844 C 228.375 22.085938 227.464844 19.441406 228.957031 19.617188 C 233.222656 20.125 237.605469 18.707031 241.683594 20.578125 C 245.601562 22.375 246.855469 26.601562 247.03125 30.589844 C 247.246094 35.453125 246.476562 40.289062 246.351562 45.144531 C 246.242188 49.429688 246.621094 54 248.851562 57.761719 C 251.003906 61.394531 255.152344 63.855469 259.421875 63.257812 C 260.34375 63.128906 261.3125 64.933594 260.863281 65.636719 C 260.835938 66.042969 260.613281 66.328125 260.085938 66.253906 C 256.234375 65.71875 252.464844 67.820312 250.089844 70.75 C 247.339844 74.144531 246.429688 78.613281 246.28125 82.882812 C 246.117188 87.648438 246.855469 92.386719 246.972656 97.144531 C 247.070312 101 247.007812 105.800781 243.550781 108.300781 C 239.511719 111.226562 234.171875 109.398438 229.625 109.941406 C 228.507812 110.078125 227.34375 107.453125 228.625 107.300781 Z M 228.625 107.300781 " fill-opacity="1" fill-rule="nonzero"/></g></svg>